<svg xmlns="http://www.w3.org/2000/svg" xmlns:xlink="http://www.w3.org/1999/xlink" width="1920" height="1080" viewBox="0 0 1920 1080">
  <defs>
    <clipPath id="clip-path">
      <ellipse id="Ellipse_2" data-name="Ellipse 2" cx="39" cy="38.5" rx="39" ry="38.5" transform="translate(-0.186)"/>
    </clipPath>
    <clipPath id="clip-path-3">
      <path id="Path_3" data-name="Path 3" d="M23.361,96.544l21.617,5.966a9.411,9.411,0,0,1,5.5,5.114v7.593H-27v-7.593a9.2,9.2,0,0,1,5.5-5.114L.118,96.544V85H23.361Z" transform="translate(27 -85)"/>
    </clipPath>
    <clipPath id="clip-path-6">
      <rect id="Rectangle_12" data-name="Rectangle 12" width="24" height="4" transform="translate(0.471 0.234)"/>
    </clipPath>
    <linearGradient id="linear-gradient" x1="0.174" x2="0.922" y2="0.919" gradientUnits="objectBoundingBox">
      <stop offset="0" stop-color="#e29f3b"/>
      <stop offset="1" stop-color="#74562a"/>
    </linearGradient>
    <linearGradient id="linear-gradient-2" x1="1" y1="0.871" x2="0.019" y2="0.061" gradientUnits="objectBoundingBox">
      <stop offset="0" stop-color="#a0eee6"/>
      <stop offset="1" stop-color="#507773"/>
    </linearGradient>
    <filter id="Rectangle_71">
      <feOffset dx="-50" input="SourceAlpha"/>
      <feGaussianBlur stdDeviation="10" result="blur"/>
      <feFlood flood-opacity="0.161" result="color"/>
      <feComposite operator="out" in="SourceGraphic" in2="blur"/>
      <feComposite operator="in" in="color"/>
      <feComposite operator="in" in2="SourceGraphic"/>
    </filter>
    <clipPath id="clip-path-8">
      <ellipse id="Ellipse_2-2" data-name="Ellipse 2" cx="84.5" cy="83" rx="84.5" ry="83" transform="translate(0 0)"/>
    </clipPath>
    <clipPath id="clip-path-10">
      <path id="Path_3-2" data-name="Path 3" d="M81.55,109.883l46.593,12.859A20.286,20.286,0,0,1,140,133.764V150.13H-27V133.764a19.827,19.827,0,0,1,11.857-11.022L31.45,109.883V85h50.1Z" transform="translate(27 -85)"/>
    </clipPath>
    <clipPath id="clip-path-13">
      <rect id="Rectangle_12-2" data-name="Rectangle 12" width="51" height="10" transform="translate(-0.459 0.4)"/>
    </clipPath>
    <clipPath id="clip-Problems_3">
      <rect width="1920" height="1080"/>
    </clipPath>
  </defs>
  <g id="Problems_3" data-name="Problems – 3" clip-path="url(#clip-Problems_3)">
    <rect width="1920" height="1080" fill="#fff"/>
    <g id="Rectangle_11" data-name="Rectangle 11" transform="translate(0 1)" fill="#fff" stroke="#707070" stroke-width="1">
      <rect width="1920" height="114" stroke="none"/>
      <rect x="0.5" y="0.5" width="1919" height="113" fill="none"/>
    </g>
    <g id="Group_18" data-name="Group 18" transform="translate(-7)">
      <g id="Group_12" data-name="Group 12" transform="translate(1765.186 24)">
        <g id="Group_11" data-name="Group 11" transform="translate(0)">
          <ellipse id="Ellipse_1" data-name="Ellipse 1" cx="39" cy="38.5" rx="39" ry="38.5" transform="translate(-0.186)" fill="#f5eee5"/>
          <g id="Group_7" data-name="Group 7">
            <g id="Group_2" data-name="Group 2" clip-path="url(#clip-path)">
              <path id="Path_1" data-name="Path 1" d="M23.361,96.544l21.617,5.966a9.411,9.411,0,0,1,5.5,5.114v7.593H-27v-7.593a9.2,9.2,0,0,1,5.5-5.114L.118,96.544V85H23.361Z" transform="translate(27 -37.738)" fill="#e6c19c"/>
            </g>
            <g id="Group_6" data-name="Group 6" clip-path="url(#clip-path)">
              <g id="Group_3" data-name="Group 3" transform="translate(0 47.262)" clip-path="url(#clip-path-3)">
                <path id="Path_2" data-name="Path 2" d="M-27,82H50.479v32.541H-27Zm38.74,23.244c8.523,0,15.5-4.881,15.5-10.847S20.262,83.55,11.74,83.55s-15.5,4.881-15.5,10.847S3.217,105.244,11.74,105.244Z" transform="translate(27 -84.324)" fill="#e6a422"/>
              </g>
              <g id="Group_4" data-name="Group 4" transform="translate(0 47.262)" clip-path="url(#clip-path-3)">
                <path id="Path_4" data-name="Path 4" d="M17.978,84.681a10.911,10.911,0,0,1-4.184-.852,64.265,64.265,0,0,1-7.9-6.431c-2.169-2.324-3.254-5.269-3.564-10.3S.7,44.082.7,39.976C.7,34.165,5.116,25.1,17.823,25.1h.155C30.762,25.177,35.1,34.165,35.1,39.976c0,4.106-1.317,22.082-1.627,27.118S32.079,75,29.91,77.4a49.744,49.744,0,0,1-7.9,6.431,9.6,9.6,0,0,1-4.029.852Z" transform="translate(20.762 -71.51)" fill="#d4b08c"/>
              </g>
              <g id="Group_5" data-name="Group 5" transform="translate(0 47.262)" clip-path="url(#clip-path-3)">
                <path id="Path_6" data-name="Path 6" d="M17.82,82C7.98,82,0,87.733,0,94.784s7.98,12.784,17.82,12.784,17.82-5.733,17.82-12.784S27.66,82,17.82,82Zm0,22.469C9.685,104.469,3.1,99.82,3.1,94.009S9.685,83.55,17.82,83.55,32.541,88.2,32.541,94.009,25.956,104.469,17.82,104.469Z" transform="translate(20.919 -84.324)" fill="#d98c21"/>
              </g>
            </g>
          </g>
          <path id="Path_8" data-name="Path 8" d="M18.5,84.938a9.92,9.92,0,0,1-3.719-.7,48.512,48.512,0,0,1-7.051-4.881c-1.937-1.782-2.944-3.951-3.254-7.748S3,54.334,3,51.234C3,46.818,6.951,40,18.5,40h0c11.544,0,15.5,6.818,15.5,11.234,0,3.1-1.162,16.658-1.472,20.455s-1.24,5.966-3.254,7.748a53.106,53.106,0,0,1-7.051,4.881,11.7,11.7,0,0,1-3.719.62Z" transform="translate(20.244 -27.603)" fill="#f2cea5"/>
          <path id="Path_9" data-name="Path 9" d="M26.892,85.072a7.039,7.039,0,0,1-6.276,1.86A5.87,5.87,0,0,1,16.2,83.6Z" transform="translate(17.271 -37.422)" fill="#a3705f"/>
          <path id="Path_10" data-name="Path 10" d="M26.892,85.072a7.039,7.039,0,0,1-6.276,1.86A5.87,5.87,0,0,1,16.2,83.6Z" transform="translate(17.271 -37.422)" fill="none" stroke="#a3705f" stroke-linecap="round" stroke-linejoin="round" stroke-width="1"/>
          <g id="Group_10" data-name="Group 10" transform="translate(26.343 31.766)">
            <g id="Group_8" data-name="Group 8" transform="translate(0)" clip-path="url(#clip-path-6)">
              <circle id="Ellipse_4" data-name="Ellipse 4" cx="1.5" cy="1.5" r="1.5" transform="translate(17.471 1.234)" fill="#291f21"/>
            </g>
            <g id="Group_9" data-name="Group 9" transform="translate(0)" clip-path="url(#clip-path-6)">
              <ellipse id="Ellipse_5" data-name="Ellipse 5" cx="2" cy="1.5" rx="2" ry="1.5" transform="translate(3.471 1.234)" fill="#291f21"/>
            </g>
          </g>
          <path id="Path_11" data-name="Path 11" d="M8,65.324S8.852,63,12.726,63a5.647,5.647,0,0,1,4.959,2.324" transform="translate(19.118 -32.783)" fill="none" stroke="#cc9872" stroke-width="2"/>
          <path id="Path_12" data-name="Path 12" d="M35.15,65.324S34.3,63,30.424,63C26.7,63,25,65.324,25,66.874v6.973" transform="translate(15.289 -32.783)" fill="none" stroke="#bb8660" stroke-width="2"/>
          <path id="Path_13" data-name="Path 13" d="M38.643,65.6s.62-4.881,2.867-5.578a46.024,46.024,0,0,0,1.162-7.67A10.934,10.934,0,0,0,41.2,46.077,8.365,8.365,0,0,0,35.312,42.9c-1.782,1.085-5.966,3.564-7.283,5.036-.7.775.31,1.395.31,1.395a11.137,11.137,0,0,1,1.317-.465c1.937-.542,6.2-.93,7.515,1.007C38.8,52.2,38.8,59.016,38.8,60.023,38.8,60.953,38.643,65.6,38.643,65.6Z" transform="translate(14.663 -28.256)" fill="#452228"/>
          <path id="Path_14" data-name="Path 14" d="M.162,58.064c2.247.775,2.867,5.578,2.867,5.578s-.155-4.649-.155-5.578c0-1.24.155-7.051,2.634-9.84,2.789-3.1,6.508-4.106,8.6-2.712,1.085.7,4.726,4.261,8.6,1.317,2.324-1.782,6.586-5.811,6.586-5.811s-2.247-6.9-12.474-6.121a34.465,34.465,0,0,1-9.143-.7,5.481,5.481,0,0,0,.7,2.944A12.142,12.142,0,0,0-.768,47.217,9.617,9.617,0,0,0-1,49.308v1.085A47.336,47.336,0,0,0,.162,58.064Z" transform="translate(21.145 -26.297)" fill="#6b363e"/>
        </g>
      </g>
      <text id="DK" transform="translate(1854 72)" fill="#eb875c" font-size="34" font-family="Sitka Display" font-weight="700" font-style="italic"><tspan x="0" y="0">DK</tspan></text>
    </g>
    <g id="Group_14" data-name="Group 14" transform="translate(1603.612 11)">
      <path id="Path_15" data-name="Path 15" d="M89.722,63.15a2.237,2.237,0,0,0-.832-.838l-2.5-1.464A6.516,6.516,0,0,1,84.042,58.5a6.309,6.309,0,0,1-.856-3.169V42.142a17.414,17.414,0,0,0-3.631-10.611,18.186,18.186,0,0,0-9.433-6.374.785.785,0,0,1-.409-.272.752.752,0,0,1-.16-.457A4.371,4.371,0,0,0,68.222,21.3a4.629,4.629,0,0,0-6.426,0,4.371,4.371,0,0,0-1.331,3.131.753.753,0,0,1-.161.456.787.787,0,0,1-.409.272,18.186,18.186,0,0,0-9.433,6.374A17.414,17.414,0,0,0,46.83,42.142V55.33a6.309,6.309,0,0,1-.856,3.169,6.517,6.517,0,0,1-2.346,2.348l-2.5,1.464a2.269,2.269,0,0,0-.957,1.088,2.2,2.2,0,0,0-.09,1.43,2.249,2.249,0,0,0,.814,1.193,2.349,2.349,0,0,0,1.388.473H87.728a2.372,2.372,0,0,0,1.131-.316,2.3,2.3,0,0,0,.828-.814,2.217,2.217,0,0,0,.033-2.217Z"/>
      <path id="Path_16" data-name="Path 16" d="M207.838,459.18a23.391,23.391,0,0,0,7.967,2.315,25.885,25.885,0,0,0,8.57-.475,21.2,21.2,0,0,0,7.377-3.166,13.917,13.917,0,0,0,4.637-5.193h-35.4A15.058,15.058,0,0,0,207.838,459.18Z" transform="translate(-153.686 -381.654)"/>
    </g>
    <line id="Line_1" data-name="Line 1" y2="115" transform="translate(1739.5)" fill="none" stroke="#707070" stroke-width="1"/>
    <line id="Line_2" data-name="Line 2" y2="115" transform="translate(1618.112)" fill="none" stroke="#707070" stroke-width="1"/>
    <g id="Group_17" data-name="Group 17" transform="translate(-100 5)">
      <text id="Zealous" transform="translate(252 57)" fill="#eb875c" font-size="45" font-family="Sitka Display" font-weight="700" font-style="italic"><tspan x="0" y="0">Zealous</tspan></text>
      <text id="Tech-Corp" transform="translate(271 87)" fill="#eb875c" font-size="25" font-family="Sitka Display" font-weight="700" font-style="italic"><tspan x="0" y="0">Tech-Corp</tspan></text>
    </g>
    <text id="Courses" transform="translate(536 84)" fill="#eb875c" font-size="35" font-family="Sitka Display" font-weight="700" font-style="italic"><tspan x="0" y="0">Courses</tspan></text>
    <text id="Student" transform="translate(771 84)" fill="#eb875c" font-size="35" font-family="Sitka Display" font-weight="700" font-style="italic"><tspan x="0" y="0">Student</tspan></text>
    <text id="Problems" transform="translate(995 84)" fill="#eb875c" font-size="35" font-family="Sitka Display" font-weight="700" font-style="italic"><tspan x="0" y="0">Problems</tspan></text>
    <g id="Rectangle_14" data-name="Rectangle 14" fill="#fff" stroke="#707070" stroke-width="1">
      <rect width="128" height="115" stroke="none"/>
      <rect x="0.5" y="0.5" width="127" height="114" fill="none"/>
    </g>
    <g id="Group_16" data-name="Group 16" transform="translate(-180 -275.535)">
      <g id="Group_15" data-name="Group 15">
        <line id="Line_3" data-name="Line 3" x2="55.693" transform="translate(215.307 328.5)" fill="none" stroke="#000" stroke-linecap="round" stroke-width="6"/>
        <line id="Line_4" data-name="Line 4" x2="55.693" transform="translate(215.307 343.535)" fill="none" stroke="#000" stroke-linecap="round" stroke-width="6"/>
        <line id="Line_5" data-name="Line 5" x2="55.693" transform="translate(214.5 358.57)" fill="none" stroke="#000" stroke-linecap="round" stroke-width="6"/>
      </g>
    </g>
    <g id="Polygon_1" data-name="Polygon 1" transform="translate(690 90) rotate(180)" fill="#200202">
      <path d="M 31.76613807678223 15.5 L 1.233862161636353 15.5 L 16.5 0.6964724063873291 L 31.76613807678223 15.5 Z" stroke="none"/>
      <path d="M 16.5 1.39295482635498 L 2.467735290527344 15 L 30.53226470947266 15 L 16.5 1.39295482635498 M 16.5 0 L 33 16 L 0 16 L 16.5 0 Z" stroke="none" fill="#707070"/>
    </g>
    <g id="Polygon_2" data-name="Polygon 2" transform="translate(927 90) rotate(180)" fill="#200202">
      <path d="M 31.76613807678223 15.5 L 1.233862161636353 15.5 L 16.5 0.6964724063873291 L 31.76613807678223 15.5 Z" stroke="none"/>
      <path d="M 16.5 1.39295482635498 L 2.467735290527344 15 L 30.53226470947266 15 L 16.5 1.39295482635498 M 16.5 0 L 33 16 L 0 16 L 16.5 0 Z" stroke="none" fill="#707070"/>
    </g>
    <g id="Polygon_5" data-name="Polygon 5" transform="translate(690 90) rotate(180)" fill="#200202">
      <path d="M 31.76613807678223 15.5 L 1.233862161636353 15.5 L 16.5 0.6964724063873291 L 31.76613807678223 15.5 Z" stroke="none"/>
      <path d="M 16.5 1.39295482635498 L 2.467735290527344 15 L 30.53226470947266 15 L 16.5 1.39295482635498 M 16.5 0 L 33 16 L 0 16 L 16.5 0 Z" stroke="none" fill="#707070"/>
    </g>
    <g id="Polygon_6" data-name="Polygon 6" transform="translate(690 90) rotate(180)" fill="#200202">
      <path d="M 31.76613807678223 15.5 L 1.233862161636353 15.5 L 16.5 0.6964724063873291 L 31.76613807678223 15.5 Z" stroke="none"/>
      <path d="M 16.5 1.39295482635498 L 2.467735290527344 15 L 30.53226470947266 15 L 16.5 1.39295482635498 M 16.5 0 L 33 16 L 0 16 L 16.5 0 Z" stroke="none" fill="#707070"/>
    </g>
    <rect id="Rectangle_55" data-name="Rectangle 55" width="1561" height="898" transform="translate(324 149)" fill="#cec6c6"/>
    <g id="Rectangle_56" data-name="Rectangle 56" transform="translate(332 201)" stroke="#707070" stroke-width="1" fill="url(#linear-gradient)">
      <rect width="327" height="132" rx="45" stroke="none"/>
      <rect x="0.5" y="0.5" width="326" height="131" rx="44.5" fill="none"/>
    </g>
    <g id="Rectangle_57" data-name="Rectangle 57" transform="translate(728 201)" stroke="#707070" stroke-width="1" fill="url(#linear-gradient-2)">
      <rect width="327" height="132" rx="45" stroke="none"/>
      <rect x="0.5" y="0.5" width="326" height="131" rx="44.5" fill="none"/>
    </g>
    <g id="Rectangle_58" data-name="Rectangle 58" transform="translate(1125 201)" fill="#217abe" stroke="#707070" stroke-width="1">
      <rect width="328" height="132" rx="45" stroke="none"/>
      <rect x="0.5" y="0.5" width="327" height="131" rx="44.5" fill="none"/>
    </g>
    <g id="Rectangle_59" data-name="Rectangle 59" transform="translate(1523 201)" fill="#cf5bac" stroke="#707070" stroke-width="1">
      <rect width="327" height="132" rx="45" stroke="none"/>
      <rect x="0.5" y="0.5" width="326" height="131" rx="44.5" fill="none"/>
    </g>
    <g id="Rectangle_60" data-name="Rectangle 60" transform="translate(1700 364)" fill="#fff" stroke="#707070" stroke-width="1">
      <rect width="123" height="35" stroke="none"/>
      <rect x="0.5" y="0.5" width="122" height="34" fill="none"/>
    </g>
    <text id="See_All" data-name="See All" transform="translate(1733 385)" fill="#0b6c62" font-size="20" font-family="Calibri"><tspan x="0" y="0">See All</tspan></text>
    <text id="Zealous_Crash_Course:" data-name="Zealous Crash Course:" transform="translate(377 240)" fill="#fff" font-size="20" font-family="SegoeUI-SemiboldItalic, Segoe UI" font-weight="600" font-style="italic"><tspan x="0" y="0">Zealous Crash Course:</tspan></text>
    <text id="MERN_Fullstack" data-name="MERN Fullstack" transform="translate(377 276)" fill="#fff" font-size="16" font-family="SegoeUI-SemiboldItalic, Segoe UI" font-weight="600" font-style="italic"><tspan x="0" y="0">MERN Fullstack</tspan></text>
    <g id="Rectangle_61" data-name="Rectangle 61" transform="translate(372 301)" fill="#fff" stroke="#707070" stroke-width="1">
      <rect width="82" height="20" stroke="none"/>
      <rect x="0.5" y="0.5" width="81" height="19" fill="none"/>
    </g>
    <text id="Start_Learning" data-name="Start Learning" transform="translate(381 311)" fill="#0b6c62" font-size="10" font-family="Sylfaen"><tspan x="0" y="0">Start Learning</tspan></text>
    <text id="Zealous_Crash_Course:-2" data-name="Zealous Crash Course:" transform="translate(761 240)" fill="#fff" font-size="20" font-family="SegoeUI-SemiboldItalic, Segoe UI" font-weight="600" font-style="italic"><tspan x="0" y="0">Zealous Crash Course:</tspan></text>
    <text id="Agile_Technology" data-name="Agile Technology" transform="translate(761 276)" fill="#fff" font-size="16" font-family="SegoeUI-SemiboldItalic, Segoe UI" font-weight="600" font-style="italic"><tspan x="0" y="0">Agile Technology</tspan></text>
    <g id="Rectangle_61-2" data-name="Rectangle 61" transform="translate(758 301)" fill="#fff" stroke="#707070" stroke-width="1">
      <rect width="82" height="20" stroke="none"/>
      <rect x="0.5" y="0.5" width="81" height="19" fill="none"/>
    </g>
    <text id="Start_Learning-2" data-name="Start Learning" transform="translate(766 311)" fill="#0b6c62" font-size="10" font-family="Sylfaen"><tspan x="0" y="0">Start Learning</tspan></text>
    <text id="Zealous_Crash_Course:-3" data-name="Zealous Crash Course:" transform="translate(1157 240)" fill="#f9fffe" font-size="20" font-family="SegoeUI-SemiboldItalic, Segoe UI" font-weight="600" font-style="italic"><tspan x="0" y="0">Zealous Crash Course:</tspan></text>
    <text id="Python_FullStack" data-name="Python FullStack" transform="translate(1157 276)" fill="#f9fffe" font-size="16" font-family="SegoeUI-SemiboldItalic, Segoe UI" font-weight="600" font-style="italic"><tspan x="0" y="0">Python FullStack</tspan></text>
    <g id="Rectangle_61-3" data-name="Rectangle 61" transform="translate(1154 301)" fill="#fff" stroke="#707070" stroke-width="1">
      <rect width="80" height="20" stroke="none"/>
      <rect x="0.5" y="0.5" width="79" height="19" fill="none"/>
    </g>
    <text id="Start_Learning-3" data-name="Start Learning" transform="translate(1161 311)" fill="#0b6c62" font-size="10" font-family="Sylfaen"><tspan x="0" y="0">Start Learning</tspan></text>
    <text id="Zealous_Crash_Course:-4" data-name="Zealous Crash Course:" transform="translate(1554 238)" fill="#fff" font-size="20" font-family="SegoeUI-SemiboldItalic, Segoe UI" font-weight="600" font-style="italic"><tspan x="0" y="0">Zealous Crash Course:</tspan></text>
    <text id="Java_Fullstack" data-name="Java Fullstack" transform="translate(1554 274)" fill="#fff" font-size="16" font-family="SegoeUI-SemiboldItalic, Segoe UI" font-weight="600" font-style="italic"><tspan x="0" y="0">Java Fullstack</tspan></text>
    <g id="Rectangle_61-4" data-name="Rectangle 61" transform="translate(1550 299)" fill="#fff" stroke="#707070" stroke-width="1">
      <rect width="81" height="20" stroke="none"/>
      <rect x="0.5" y="0.5" width="80" height="19" fill="none"/>
    </g>
    <text id="Start_Learning-4" data-name="Start Learning" transform="translate(1558 309)" fill="#0b6c62" font-size="10" font-family="Sylfaen"><tspan x="0" y="0">Start Learning</tspan></text>
    <g id="Rectangle_62" data-name="Rectangle 62" transform="translate(324 429)" fill="#fff" stroke="#707070" stroke-width="1">
      <rect width="1561" height="92" stroke="none"/>
      <rect x="0.5" y="0.5" width="1560" height="91" fill="none"/>
    </g>
    <g data-type="innerShadowGroup">
      <rect id="Rectangle_71-2" data-name="Rectangle 71" width="117" height="35" rx="17.5" transform="translate(1757 459)" fill="#fff"/>
      <g transform="matrix(1, 0, 0, 1, 0, 0)" filter="url(#Rectangle_71)">
        <rect id="Rectangle_71-3" data-name="Rectangle 71" width="117" height="35" rx="17.5" transform="translate(1757 459)" fill="#fff"/>
      </g>
      <g id="Rectangle_71-4" data-name="Rectangle 71" transform="translate(1757 459)" fill="none" stroke="#707070" stroke-width="1">
        <rect width="117" height="35" rx="17.5" stroke="none"/>
        <rect x="0.5" y="0.5" width="116" height="34" rx="17" fill="none"/>
      </g>
    </g>
    <g id="Layer_2" data-name="Layer 2" transform="translate(1858.84 467.223)">
      <path id="Path_167" data-name="Path 167" d="M13.486,13.785,6.514,5.618a.632.632,0,0,0-.958.043.934.934,0,0,0-.037,1.123l6.393,7.5L5.7,21.562a.932.932,0,0,0,0,1.167h0a.635.635,0,0,0,1,0l6.781-7.951a.792.792,0,0,0,0-.993Z" transform="translate(-5.35 -5.42)" fill="#231f20"/>
      <path id="Path_168" data-name="Path 168" d="M23.066,13.785,16.094,5.618a.632.632,0,0,0-.958.043A.934.934,0,0,0,15.1,6.785l6.393,7.5-6.21,7.281a.932.932,0,0,0,0,1.167h0a.635.635,0,0,0,.995,0l6.788-7.951a.792.792,0,0,0,0-.993Z" transform="translate(-8.169 -5.42)" fill="#231f20"/>
    </g>
    <g id="Group_119" data-name="Group 119" transform="translate(329.158 459)">
      <g id="Rectangle_77" data-name="Rectangle 77" transform="translate(-0.158)" fill="#fff" stroke="#707070" stroke-width="1">
        <rect width="156" height="35" rx="17.5" stroke="none"/>
        <rect x="0.5" y="0.5" width="155" height="34" rx="17" fill="none"/>
      </g>
      <text id="All_Topics" data-name="All Topics" transform="translate(39.842 20)" fill="#0b6c62" font-size="16" font-family="Calibri-Bold, Calibri" font-weight="700"><tspan x="0" y="0">All Topics</tspan></text>
    </g>
    <g id="Group_120" data-name="Group 120" transform="translate(503.521 459)">
      <g id="Rectangle_64" data-name="Rectangle 64" transform="translate(0.479)" fill="#fff" stroke="#707070" stroke-width="1">
        <rect width="155" height="35" rx="17.5" stroke="none"/>
        <rect x="0.5" y="0.5" width="154" height="34" rx="17" fill="none"/>
      </g>
      <text id="Algorithms" transform="translate(39.479 20)" fill="#0b6c62" font-size="16" font-family="Calibri-Bold, Calibri" font-weight="700"><tspan x="0" y="0">Algorithms</tspan></text>
    </g>
    <g id="Group_121" data-name="Group 121" transform="translate(682.009 459)">
      <g id="Rectangle_65" data-name="Rectangle 65" transform="translate(-0.009)" fill="#fff" stroke="#707070" stroke-width="1">
        <rect width="157" height="35" rx="17.5" stroke="none"/>
        <rect x="0.5" y="0.5" width="156" height="34" rx="17" fill="none"/>
      </g>
      <text id="Database" transform="translate(44.991 20)" fill="#0b6c62" font-size="16" font-family="Calibri-Bold, Calibri" font-weight="700"><tspan x="0" y="0">Database</tspan></text>
    </g>
    <g id="Group_122" data-name="Group 122" transform="translate(861.528 459)">
      <g id="Rectangle_66" data-name="Rectangle 66" transform="translate(0.472)" fill="#fff" stroke="#707070" stroke-width="1">
        <rect width="155" height="35" rx="17.5" stroke="none"/>
        <rect x="0.5" y="0.5" width="154" height="34" rx="17" fill="none"/>
      </g>
      <text id="React_Js" data-name="React Js" transform="translate(50.472 20)" fill="#0b6c62" font-size="16" font-family="Calibri-Bold, Calibri" font-weight="700"><tspan x="0" y="0">React Js</tspan></text>
    </g>
    <g id="Group_123" data-name="Group 123" transform="translate(1041.049 459)">
      <g id="Rectangle_67" data-name="Rectangle 67" transform="translate(-0.049)" fill="#fff" stroke="#707070" stroke-width="1">
        <rect width="156" height="35" rx="17.5" stroke="none"/>
        <rect x="0.5" y="0.5" width="155" height="34" rx="17" fill="none"/>
      </g>
      <text id="Python" transform="translate(52.951 20)" fill="#0b6c62" font-size="16" font-family="Calibri-Bold, Calibri" font-weight="700"><tspan x="0" y="0">Python</tspan></text>
    </g>
    <g id="Group_124" data-name="Group 124" transform="translate(1219.537 459)">
      <g id="Rectangle_68" data-name="Rectangle 68" transform="translate(0.463)" fill="#fff" stroke="#707070" stroke-width="1">
        <rect width="155" height="35" rx="17.5" stroke="none"/>
        <rect x="0.5" y="0.5" width="154" height="34" rx="17" fill="none"/>
      </g>
      <text id="Java" transform="translate(62.463 20)" fill="#0b6c62" font-size="16" font-family="Calibri-Bold, Calibri" font-weight="700"><tspan x="0" y="0">Java</tspan></text>
    </g>
    <g id="Group_125" data-name="Group 125" transform="translate(1399.058 459)">
      <g id="Rectangle_69" data-name="Rectangle 69" transform="translate(-0.058)" fill="#fff" stroke="#707070" stroke-width="1">
        <rect width="156" height="35" rx="17.5" stroke="none"/>
        <rect x="0.5" y="0.5" width="155" height="34" rx="17" fill="none"/>
      </g>
      <text id="C_C_" data-name="C/C++" transform="translate(56.942 20)" fill="#0b6c62" font-size="16" font-family="Calibri-Bold, Calibri" font-weight="700"><tspan x="0" y="0">C/C++</tspan></text>
    </g>
    <g id="Group_126" data-name="Group 126" transform="translate(1577.547 459)">
      <g id="Rectangle_70" data-name="Rectangle 70" transform="translate(0.453)" fill="#fff" stroke="#707070" stroke-width="1">
        <rect width="156" height="35" rx="17.5" stroke="none"/>
        <rect x="0.5" y="0.5" width="155" height="34" rx="17" fill="none"/>
      </g>
      <text id="Node_Js" data-name="Node Js" transform="translate(51.453 20)" fill="#0b6c62" font-size="16" font-family="Calibri-Bold, Calibri" font-weight="700"><tspan x="0" y="0">Node Js</tspan></text>
    </g>
    <text id="Shell" transform="translate(1799 479)" fill="#0b6c62" font-size="16" font-family="Calibri-Bold, Calibri" font-weight="700"><tspan x="0" y="0">Shell</tspan></text>
    <g id="Rectangle_72" data-name="Rectangle 72" transform="translate(1589 560)" fill="#fff" stroke="#707070" stroke-width="1">
      <rect width="275" height="470" stroke="none"/>
      <rect x="0.5" y="0.5" width="274" height="469" fill="none"/>
    </g>
    <rect id="Rectangle_73" data-name="Rectangle 73" width="995" height="381" rx="34" transform="translate(371 654)" fill="#fff"/>
    <line id="Line_28" data-name="Line 28" x2="995.306" transform="translate(371.571 728.5)" fill="none" stroke="#707070" stroke-width="1"/>
    <path id="Path_177" data-name="Path 177" d="M5,.424,999.453,0" transform="translate(367.424 762.5)" fill="none" stroke="#707070" stroke-width="1"/>
    <line id="Line_30" data-name="Line 30" x2="995.733" transform="translate(371.145 796.924)" fill="none" stroke="#707070" stroke-width="1"/>
    <line id="Line_31" data-name="Line 31" x2="995.306" transform="translate(371.571 830.924)" fill="none" stroke="#707070" stroke-width="1"/>
    <line id="Line_33" data-name="Line 33" x2="995.306" transform="translate(371.571 864.924)" fill="none" stroke="#707070" stroke-width="1"/>
    <line id="Line_39" data-name="Line 39" x2="995.306" transform="translate(371.571 898.924)" fill="none" stroke="#707070" stroke-width="1"/>
    <line id="Line_40" data-name="Line 40" x2="995.306" transform="translate(371.571 932.924)" fill="none" stroke="#707070" stroke-width="1"/>
    <line id="Line_41" data-name="Line 41" x2="995.733" transform="translate(371.145 966.924)" fill="none" stroke="#707070" stroke-width="1"/>
    <line id="Line_42" data-name="Line 42" x2="995.306" transform="translate(371.571 1000.924)" fill="none" stroke="#707070" stroke-width="1"/>
    <line id="Line_34" data-name="Line 34" y2="379" transform="translate(454.3 656.5)" fill="none" stroke="#707070" stroke-width="1"/>
    <line id="Line_35" data-name="Line 35" y2="379" transform="translate(948.115 656.5)" fill="none" stroke="#707070" stroke-width="1"/>
    <line id="Line_36" data-name="Line 36" y2="381" transform="translate(1159.629 654.5)" fill="none" stroke="#707070" stroke-width="1"/>
    <line id="Line_38" data-name="Line 38" y2="379.5" transform="translate(1277.325 656)" fill="none" stroke="#707070" stroke-width="1"/>
    <line id="Line_37" data-name="Line 37" y2="381" transform="translate(1041 654)" fill="none" stroke="#707070" stroke-width="1"/>
    <g id="Group_113" data-name="Group 113" transform="translate(382.232 690)">
      <path id="Path_169" data-name="Path 169" d="M17.058,2H16.2V1a.935.935,0,0,0-.853-1A.935.935,0,0,0,14.5,1V2H5.97V1a.935.935,0,0,0-.853-1,.935.935,0,0,0-.853,1V2H3.412A3.741,3.741,0,0,0,0,6V20a3.741,3.741,0,0,0,3.412,4H17.058a3.741,3.741,0,0,0,3.412-4V6A3.741,3.741,0,0,0,17.058,2Zm1.706,18a1.871,1.871,0,0,1-1.706,2H3.412a1.871,1.871,0,0,1-1.706-2V6A1.871,1.871,0,0,1,3.412,4h.853V5a.935.935,0,0,0,.853,1A.935.935,0,0,0,5.97,5V4H14.5V5a.935.935,0,0,0,.853,1A.935.935,0,0,0,16.2,5V4h.853a1.871,1.871,0,0,1,1.706,2Z" transform="translate(0)" fill="#232323"/>
      <path id="Path_170" data-name="Path 170" d="M16.793,7H4.853A.935.935,0,0,0,4,8a.935.935,0,0,0,.853,1h11.94a.935.935,0,0,0,.853-1A.935.935,0,0,0,16.793,7Z" transform="translate(-0.588)" fill="#232323"/>
      <path id="Path_171" data-name="Path 171" d="M6.559,12H4.853A.935.935,0,0,0,4,13a.935.935,0,0,0,.853,1H6.559a.935.935,0,0,0,.853-1A.935.935,0,0,0,6.559,12Z" transform="translate(-0.588)" fill="#232323"/>
      <path id="Path_172" data-name="Path 172" d="M6.559,17H4.853a1.013,1.013,0,0,0,0,2H6.559a1.013,1.013,0,0,0,0-2Z" transform="translate(-0.588)" fill="#232323"/>
      <path id="Path_173" data-name="Path 173" d="M12.559,12H10.853A.935.935,0,0,0,10,13a.935.935,0,0,0,.853,1h1.706a.935.935,0,0,0,.853-1A.935.935,0,0,0,12.559,12Z" transform="translate(-1.471)" fill="#232323"/>
      <path id="Path_174" data-name="Path 174" d="M12.559,17H10.853a1.013,1.013,0,0,0,0,2h1.706a1.013,1.013,0,0,0,0-2Z" transform="translate(-1.471)" fill="#232323"/>
      <path id="Path_175" data-name="Path 175" d="M18.559,12H16.853A.935.935,0,0,0,16,13a.935.935,0,0,0,.853,1h1.706a.935.935,0,0,0,.853-1A.935.935,0,0,0,18.559,12Z" transform="translate(-2.354)" fill="#232323"/>
      <path id="Path_176" data-name="Path 176" d="M18.559,17H16.853a1.013,1.013,0,0,0,0,2h1.706a1.013,1.013,0,0,0,0-2Z" transform="translate(-2.354)" fill="#232323"/>
    </g>
    <text id="Status" transform="translate(404 703)" fill="#0b6c62" font-size="14" font-family="Calibri"><tspan x="0" y="0">Status</tspan></text>
    <path id="Path_178" data-name="Path 178" d="M4.64,20.5H17.006a.7.7,0,0,1,.64.75.721.721,0,0,1-.553.743L17.006,22H4.64A.7.7,0,0,1,4,21.25a.721.721,0,0,1,.553-.743L4.64,20.5h0ZM14.448,3a3.507,3.507,0,0,1,3.2,3.75v8.5a3.507,3.507,0,0,1-3.2,3.75H7.2A3.507,3.507,0,0,1,4,15.25V6.75A3.507,3.507,0,0,1,7.2,3Zm0,1.5H7.2A2.1,2.1,0,0,0,5.279,6.75v8.5A2.1,2.1,0,0,0,7.2,17.5h7.249a2.1,2.1,0,0,0,1.919-2.25V6.75A2.1,2.1,0,0,0,14.448,4.5Z" transform="translate(531.75 689)" fill="#212121"/>
    <text id="Title" transform="translate(578 704)" fill="#0b6c62" font-size="14" font-family="Calibri"><tspan x="0" y="0">Title</tspan></text>
    <text id="Score" transform="translate(976 703)" fill="#0b6c62" font-size="14" font-family="Calibri"><tspan x="0" y="0">Score</tspan></text>
    <text id="Accuracy" transform="translate(1064 705)" fill="#0b6c62" font-size="15" font-family="Calibri"><tspan x="0" y="0">Accuracy</tspan></text>
    <text id="Difficulty_level" data-name="Difficulty
   level" transform="translate(1200 695)" fill="#0b6c62" font-size="15" font-family="Calibri"><tspan x="0" y="0">Difficulty</tspan><tspan x="0" y="18" xml:space="preserve">   level</tspan></text>
    <text id="Completed_date" data-name="Completed
      date" transform="translate(1288 698)" fill="#0b6c62" font-size="14" font-family="Calibri"><tspan x="0" y="0">Completed</tspan><tspan x="0" y="17" xml:space="preserve">      date</tspan></text>
    <text id="Test_-1" data-name="Test -1" transform="translate(525 750)" fill="#0b6c62" font-size="15" font-family="Calibri"><tspan x="0" y="0">Test -1</tspan></text>
    <text id="Test_-2" data-name="Test -2" transform="translate(525 784)" fill="#0b6c62" font-size="15" font-family="Calibri"><tspan x="0" y="0">Test -2</tspan></text>
    <text id="Test_-3" data-name="Test -3" transform="translate(525 817)" fill="#0b6c62" font-size="15" font-family="Calibri"><tspan x="0" y="0">Test -3</tspan></text>
    <text id="Test_-4" data-name="Test -4" transform="translate(525 851)" fill="#0b6c62" font-size="15" font-family="Calibri"><tspan x="0" y="0">Test -4</tspan></text>
    <text id="Test_-6" data-name="Test -6" transform="translate(525 918)" fill="#0b6c62" font-size="15" font-family="Calibri"><tspan x="0" y="0">Test -6</tspan></text>
    <text id="Test_-5" data-name="Test -5" transform="translate(525 884)" fill="#0b6c62" font-size="15" font-family="Calibri"><tspan x="0" y="0">Test -5</tspan></text>
    <text id="Test_-7" data-name="Test -7" transform="translate(525 951)" fill="#0b6c62" font-size="15" font-family="Calibri"><tspan x="0" y="0">Test -7</tspan></text>
    <g id="Group_114" data-name="Group 114" transform="translate(400.995 736)">
      <path id="Path_179" data-name="Path 179" d="M9.011.2C4.1.2.1,4.887.1,10.648S4.1,21.1,9.011,21.1a8.219,8.219,0,0,0,6.042-2.768.509.509,0,0,0,.021-.641.348.348,0,0,0-.547-.024A7.5,7.5,0,0,1,9.011,20.19c-4.489,0-8.138-4.279-8.138-9.542S4.522,1.1,9.011,1.1s8.138,4.283,8.138,9.542a10.781,10.781,0,0,1-1.219,5.03.5.5,0,0,0,.125.625.357.357,0,0,0,.533-.147,11.8,11.8,0,0,0,1.337-5.508C17.922,4.887,13.924.2,9.011.2Z" transform="translate(-0.1 -0.2)" fill="#1ab626"/>
      <path id="Path_180" data-name="Path 180" d="M137.553,176.8l-4.886,6.026-2.639-2.458a.35.35,0,0,0-.543.073.509.509,0,0,0,.063.637l2.918,2.715a.353.353,0,0,0,.24.1.357.357,0,0,0,.279-.143l5.129-6.328a.514.514,0,0,0-.014-.641A.352.352,0,0,0,137.553,176.8Z" transform="translate(-124.899 -169.453)" fill="#1ab626"/>
    </g>
    <g id="Group_115" data-name="Group 115" transform="translate(398.437 804.424)">
      <path id="Path_179-2" data-name="Path 179" d="M9.011.2C4.1.2.1,4.887.1,10.648S4.1,21.1,9.011,21.1a8.219,8.219,0,0,0,6.042-2.768.509.509,0,0,0,.021-.641.348.348,0,0,0-.547-.024A7.5,7.5,0,0,1,9.011,20.19c-4.489,0-8.138-4.279-8.138-9.542S4.522,1.1,9.011,1.1s8.138,4.283,8.138,9.542a10.781,10.781,0,0,1-1.219,5.03.5.5,0,0,0,.125.625.357.357,0,0,0,.533-.147,11.8,11.8,0,0,0,1.337-5.508C17.922,4.887,13.924.2,9.011.2Z" transform="translate(-0.1 -0.2)" fill="#1ab626"/>
      <path id="Path_180-2" data-name="Path 180" d="M137.553,176.8l-4.886,6.026-2.639-2.458a.35.35,0,0,0-.543.073.509.509,0,0,0,.063.637l2.918,2.715a.353.353,0,0,0,.24.1.357.357,0,0,0,.279-.143l5.129-6.328a.514.514,0,0,0-.014-.641A.352.352,0,0,0,137.553,176.8Z" transform="translate(-124.899 -169.453)" fill="#1ab626"/>
    </g>
    <g id="Group_116" data-name="Group 116" transform="translate(398.437 838.424)">
      <path id="Path_179-3" data-name="Path 179" d="M9.011.2C4.1.2.1,4.887.1,10.648S4.1,21.1,9.011,21.1a8.219,8.219,0,0,0,6.042-2.768.509.509,0,0,0,.021-.641.348.348,0,0,0-.547-.024A7.5,7.5,0,0,1,9.011,20.19c-4.489,0-8.138-4.279-8.138-9.542S4.522,1.1,9.011,1.1s8.138,4.283,8.138,9.542a10.781,10.781,0,0,1-1.219,5.03.5.5,0,0,0,.125.625.357.357,0,0,0,.533-.147,11.8,11.8,0,0,0,1.337-5.508C17.922,4.887,13.924.2,9.011.2Z" transform="translate(-0.1 -0.2)" fill="#1ab626"/>
      <path id="Path_180-3" data-name="Path 180" d="M137.553,176.8l-4.886,6.026-2.639-2.458a.35.35,0,0,0-.543.073.509.509,0,0,0,.063.637l2.918,2.715a.353.353,0,0,0,.24.1.357.357,0,0,0,.279-.143l5.129-6.328a.514.514,0,0,0-.014-.641A.352.352,0,0,0,137.553,176.8Z" transform="translate(-124.899 -169.453)" fill="#1ab626"/>
    </g>
    <g id="Group_117" data-name="Group 117" transform="translate(398.437 904.528)">
      <path id="Path_179-4" data-name="Path 179" d="M9.011.2C4.1.2.1,4.887.1,10.648S4.1,21.1,9.011,21.1a8.219,8.219,0,0,0,6.042-2.768.509.509,0,0,0,.021-.641.348.348,0,0,0-.547-.024A7.5,7.5,0,0,1,9.011,20.19c-4.489,0-8.138-4.279-8.138-9.542S4.522,1.1,9.011,1.1s8.138,4.283,8.138,9.542a10.781,10.781,0,0,1-1.219,5.03.5.5,0,0,0,.125.625.357.357,0,0,0,.533-.147,11.8,11.8,0,0,0,1.337-5.508C17.922,4.887,13.924.2,9.011.2Z" transform="translate(-0.1 -0.2)" fill="#1ab626"/>
      <path id="Path_180-4" data-name="Path 180" d="M137.553,176.8l-4.886,6.026-2.639-2.458a.35.35,0,0,0-.543.073.509.509,0,0,0,.063.637l2.918,2.715a.353.353,0,0,0,.24.1.357.357,0,0,0,.279-.143l5.129-6.328a.514.514,0,0,0-.014-.641A.352.352,0,0,0,137.553,176.8Z" transform="translate(-124.899 -169.453)" fill="#1ab626"/>
    </g>
    <text id="_95" data-name="95" transform="translate(981 754)" fill="#0b6c62" font-size="15" font-family="Calibri"><tspan x="0" y="0">95</tspan></text>
    <text id="_50" data-name="50" transform="translate(981 822)" fill="#0b6c62" font-size="15" font-family="Calibri"><tspan x="0" y="0">50</tspan></text>
    <text id="_69" data-name="69" transform="translate(981 856)" fill="#0b6c62" font-size="15" font-family="Calibri"><tspan x="0" y="0">69</tspan></text>
    <text id="_78" data-name="78" transform="translate(981 924)" fill="#0b6c62" font-size="15" font-family="Calibri"><tspan x="0" y="0">78</tspan></text>
    <g id="Group_175" data-name="Group 175">
      <g id="Rectangle_47" data-name="Rectangle 47" transform="translate(0 115)" fill="#503ca0" stroke="#707070" stroke-width="1">
        <rect width="324" height="965" stroke="none"/>
        <rect x="0.5" y="0.5" width="323" height="964" fill="none"/>
      </g>
      <g id="Group_12-2" data-name="Group 12" transform="translate(77.91 156.897)">
        <g id="Group_11-2" data-name="Group 11" transform="translate(0.09 0.103)">
          <ellipse id="Ellipse_1-2" data-name="Ellipse 1" cx="84.5" cy="83" rx="84.5" ry="83" transform="translate(0 0)" fill="#f5eee5"/>
          <g id="Group_7-2" data-name="Group 7" transform="translate(0)">
            <g id="Group_2-2" data-name="Group 2" clip-path="url(#clip-path-8)">
              <path id="Path_1-2" data-name="Path 1" d="M81.55,109.883l46.593,12.859A20.286,20.286,0,0,1,140,133.764V150.13H-27V133.764a19.827,19.827,0,0,1,11.857-11.022L31.45,109.883V85h50.1Z" transform="translate(27.098 16.523)" fill="#e6c19c"/>
            </g>
            <g id="Group_6-2" data-name="Group 6" clip-path="url(#clip-path-8)">
              <g id="Group_3-2" data-name="Group 3" transform="translate(0.098 101.523)" clip-path="url(#clip-path-10)">
                <path id="Path_2-2" data-name="Path 2" d="M-27,82H140v70.14H-27Zm83.5,50.1c18.37,0,33.4-10.521,33.4-23.38S74.87,85.34,56.5,85.34,23.1,95.861,23.1,108.72,38.13,132.1,56.5,132.1Z" transform="translate(27 -87.01)" fill="#e6a422"/>
              </g>
              <g id="Group_4-2" data-name="Group 4" transform="translate(0.098 101.523)" clip-path="url(#clip-path-10)">
                <path id="Path_4-2" data-name="Path 4" d="M37.941,153.524a23.518,23.518,0,0,1-9.018-1.837c-2.839-1.5-13.36-10.187-17.034-13.861-4.676-5.01-7.014-11.356-7.682-22.211S.7,66.015.7,57.164C.7,44.639,10.219,25.1,37.607,25.1h.334c27.555.167,36.907,19.539,36.907,32.064,0,8.851-2.839,47.6-3.507,58.45s-3.006,17.034-7.682,22.211c-3.507,3.841-14.028,12.358-17.034,13.861a20.7,20.7,0,0,1-8.684,1.837Z" transform="translate(45.559 -125.133)" fill="#d4b08c"/>
              </g>
              <g id="Group_5-2" data-name="Group 5" transform="translate(0.098 101.523)" clip-path="url(#clip-path-10)">
                <path id="Path_6-2" data-name="Path 6" d="M38.41,82C17.2,82,0,94.358,0,109.555S17.2,137.11,38.41,137.11s38.41-12.358,38.41-27.555S59.619,82,38.41,82Zm0,48.43c-17.535,0-31.73-10.02-31.73-22.545S20.875,85.34,38.41,85.34s31.73,10.02,31.73,22.545S55.945,130.43,38.41,130.43Z" transform="translate(45.09 -87.01)" fill="#d98c21"/>
              </g>
            </g>
          </g>
          <path id="Path_8-2" data-name="Path 8" d="M36.4,136.86a21.381,21.381,0,0,1-8.016-1.5c-2.672-1.169-12.024-7.682-15.2-10.521-4.175-3.841-6.346-8.517-7.014-16.7S3,70.9,3,64.215C3,54.7,11.517,40,36.4,40h0c24.883,0,33.4,14.7,33.4,24.215,0,6.68-2.505,35.905-3.173,44.088s-2.672,12.859-7.014,16.7c-3.173,2.839-12.692,9.352-15.2,10.521A25.214,25.214,0,0,1,36.4,136.86Z" transform="translate(47.199 -13.628)" fill="#f2cea5"/>
          <path id="Path_9-2" data-name="Path 9" d="M39.246,86.773a15.172,15.172,0,0,1-13.527,4.008c-4.509-1-7.849-3.34-9.519-7.181Z" transform="translate(56.043 15.585)" fill="#a3705f"/>
          <path id="Path_10-2" data-name="Path 10" d="M39.246,86.773a15.172,15.172,0,0,1-13.527,4.008c-4.509-1-7.849-3.34-9.519-7.181Z" transform="translate(56.043 15.585)" fill="none" stroke="#a3705f" stroke-linecap="round" stroke-linejoin="round" stroke-width="1"/>
          <g id="Group_10-2" data-name="Group 10" transform="translate(57.459 67.6)">
            <g id="Group_8-2" data-name="Group 8" transform="translate(0 0)" clip-path="url(#clip-path-13)">
              <ellipse id="Ellipse_4-2" data-name="Ellipse 4" cx="3" cy="3.5" rx="3" ry="3.5" transform="translate(37.541 3.4)" fill="#291f21"/>
            </g>
            <g id="Group_9-2" data-name="Group 9" transform="translate(0 0)" clip-path="url(#clip-path-13)">
              <ellipse id="Ellipse_5-2" data-name="Ellipse 5" cx="5" cy="3.5" rx="5" ry="3.5" transform="translate(6.541 3.4)" fill="#291f21"/>
            </g>
          </g>
          <path id="Path_11-2" data-name="Path 11" d="M8,68.01S9.837,63,18.187,63c5.678,0,9.018,2.505,10.688,5.01" transform="translate(50.549 1.783)" fill="none" stroke="#cc9872" stroke-width="2"/>
          <path id="Path_12-2" data-name="Path 12" d="M46.877,68.01S45.04,63,36.69,63C28.674,63,25,68.01,25,71.35V86.38" transform="translate(61.939 1.783)" fill="none" stroke="#bb8660" stroke-width="2"/>
          <path id="Path_13-2" data-name="Path 13" d="M51.192,91.831s1.336-10.521,6.179-12.024c.668-3.006,2.5-11.69,2.5-16.533s-.5-9.519-3.173-13.527C53.7,45.405,47.351,42.9,44.011,42.9c-3.841,2.338-12.859,7.682-15.7,10.855-1.5,1.67.668,3.006.668,3.006a24.006,24.006,0,0,1,2.839-1c4.175-1.169,13.36-2,16.2,2.171,3.507,5.01,3.507,19.706,3.507,21.877C51.526,81.811,51.192,91.831,51.192,91.831Z" transform="translate(63.803 -11.684)" fill="#452228"/>
          <path id="Path_14-2" data-name="Path 14" d="M1.505,85.636C6.348,87.306,7.684,97.66,7.684,97.66S7.35,87.64,7.35,85.636c0-2.672.334-15.2,5.678-21.209,6.012-6.68,14.028-8.851,18.537-5.845,2.338,1.5,10.187,9.185,18.537,2.839C55.112,57.58,64.3,48.9,64.3,48.9S59.454,34.033,37.41,35.7c-9.352.835-19.706-1.5-19.706-1.5s-.167,4.175,1.5,6.346C5.346,44.554.837,54.574-.5,62.256A20.729,20.729,0,0,0-1,66.765V69.1C-1,73.946.837,82.463,1.505,85.636Z" transform="translate(44.519 -17.514)" fill="#6b363e"/>
        </g>
      </g>
      <text id="Student_Name" data-name="Student Name" transform="translate(58 363)" fill="#fff" font-size="35" font-family="Calibri-Bold, Calibri" font-weight="700"><tspan x="0" y="0">Student Name</tspan></text>
      <text id="Dashboard" transform="translate(64 474)" fill="#fff" font-size="35" font-family="Calibri-Bold, Calibri" font-weight="700"><tspan x="0" y="0">Dashboard</tspan></text>
      <text id="Courses-2" data-name="Courses" transform="translate(64 531)" fill="#fff" font-size="35" font-family="Calibri-Bold, Calibri" font-weight="700"><tspan x="0" y="0">Courses</tspan></text>
      <text id="Forum" transform="translate(64 588)" fill="#fff" font-size="35" font-family="Calibri-Bold, Calibri" font-weight="700"><tspan x="0" y="0">Forum</tspan></text>
      <text id="Account" transform="translate(64 702)" fill="#fff" font-size="35" font-family="Calibri-Bold, Calibri" font-weight="700"><tspan x="0" y="0">Account</tspan></text>
      <text id="Messages" transform="translate(64 759)" fill="#fff" font-size="35" font-family="Calibri-Bold, Calibri" font-weight="700"><tspan x="0" y="0">Messages</tspan></text>
      <text id="Logout" transform="translate(64 816)" fill="#fff" font-size="35" font-family="Calibri-Bold, Calibri" font-weight="700"><tspan x="0" y="0">Logout</tspan></text>
      <text id="News" transform="translate(64 645)" fill="#fff" font-size="35" font-family="Calibri-Bold, Calibri" font-weight="700"><tspan x="0" y="0">News</tspan></text>
      <g id="Group_174" data-name="Group 174">
        <g id="dashboard-2" data-name="dashboard" transform="translate(22 446)">
          <line id="Line_23" data-name="Line 23" x2="26" transform="translate(3 29)" fill="none" stroke="#fff" stroke-linecap="round" stroke-linejoin="round" stroke-width="2"/>
          <line id="Line_24" data-name="Line 24" y2="26" transform="translate(3 3)" fill="none" stroke="#fff" stroke-linecap="round" stroke-linejoin="round" stroke-width="2"/>
          <line id="Line_25" data-name="Line 25" y2="18" transform="translate(16 7)" fill="none" stroke="#fff" stroke-linecap="round" stroke-linejoin="round" stroke-width="2"/>
          <line id="Line_26" data-name="Line 26" y2="14" transform="translate(22 11)" fill="none" stroke="#fff" stroke-linecap="round" stroke-linejoin="round" stroke-width="2"/>
          <line id="Line_27" data-name="Line 27" y2="9" transform="translate(10 16)" fill="none" stroke="#fff" stroke-linecap="round" stroke-linejoin="round" stroke-width="2"/>
        </g>
        <g id="_x30_1_Online_Courses" transform="translate(10.654 448.225)">
          <g id="Group_103" data-name="Group 103" transform="translate(10.846 61.608)">
            <g id="Group_101" data-name="Group 101" transform="translate(9.557 22.628)">
              <g id="Group_100" data-name="Group 100">
                <path id="Path_147" data-name="Path 147" d="M166.729,401.021a.322.322,0,0,1-.324.324l-10.741,0h-2.5a.324.324,0,1,1,0-.647h2.174V397.8h8.894V400.7h2.171A.32.32,0,0,1,166.729,401.021Z" transform="translate(-152.843 -397.805)" fill="#fff"/>
              </g>
            </g>
            <g id="Group_102" data-name="Group 102">
              <path id="Path_148" data-name="Path 148" d="M340.683,179.6a.1.1,0,0,0-.055-.017.1.1,0,0,0-.05.013.1.1,0,0,0-.054.09v4.275a.1.1,0,0,0,.054.091.1.1,0,0,0,.105,0l3.278-2.138a.1.1,0,0,0,0-.173Z" transform="translate(-318.335 -171.644)" fill="#fff"/>
              <path id="Path_149" data-name="Path 149" d="M103.264,212.311a.322.322,0,0,1-.219,0l-3.462-1.245v2.665a.394.394,0,0,0,.395.391h6.357a.392.392,0,0,0,.391-.391v-2.665l-.433.156Z" transform="translate(-93.611 -201.007)" fill="#fff"/>
              <path id="Path_150" data-name="Path 150" d="M83.555,171.62l.658.237,3.128,1.124,2.857-1.027.928-.334h0l.927-.333-4.714-1.693-4.715,1.694.925.332Z" transform="translate(-77.797 -162.325)" fill="#fff"/>
              <path id="Path_151" data-name="Path 151" d="M301.417,150.761a4.182,4.182,0,1,0,4.182,4.182A4.187,4.187,0,0,0,301.417,150.761Zm2.522,4.808-3.278,2.138a.75.75,0,0,1-1.16-.628V152.8a.75.75,0,0,1,1.159-.628l3.278,2.137a.75.75,0,0,1,0,1.256Z" transform="translate(-277.96 -144.761)" fill="#fff"/>
              <path id="Path_152" data-name="Path 152" d="M54.126,110.671v12.742a.547.547,0,0,0,.546.546H67.391V110.125H54.672A.546.546,0,0,0,54.126,110.671Zm.852,4.846,5.671-2.038a.322.322,0,0,1,.219,0l5.67,2.037.009,0a.324.324,0,0,1,.029.016.32.32,0,0,1,.067.045.324.324,0,0,1,.026.027.318.318,0,0,1,.044.065.3.3,0,0,1,.016.032.319.319,0,0,1,.023.114v2.68a.324.324,0,0,1-.647,0v-2.22l-1.13.406v2.9a1.04,1.04,0,0,1-1.039,1.039H57.58a1.041,1.041,0,0,1-1.042-1.039v-2.9l-1.56-.56a.323.323,0,0,1,0-.609Z" transform="translate(-51.213 -106.86)" fill="#fff"/>
              <path id="Path_153" data-name="Path 153" d="M41.9,61.608H12.787a1.945,1.945,0,0,0-1.941,1.941v18.1a1.945,1.945,0,0,0,1.941,1.941H41.9a1.943,1.943,0,0,0,1.941-1.941v-18.1A1.943,1.943,0,0,0,41.9,61.608Zm-.322,16.553a1.194,1.194,0,0,1-1.193,1.193H14.3a1.194,1.194,0,0,1-1.193-1.193V65.419A1.194,1.194,0,0,1,14.3,64.226H40.39a1.194,1.194,0,0,1,1.193,1.193V78.161Z" transform="translate(-10.846 -61.608)" fill="#fff"/>
              <path id="Path_154" data-name="Path 154" d="M273.543,110.125H260.824v13.834h12.719a.547.547,0,0,0,.546-.546V110.671A.547.547,0,0,0,273.543,110.125Zm-6.086,11.746a4.829,4.829,0,1,1,4.829-4.829A4.834,4.834,0,0,1,267.456,121.871Z" transform="translate(-243.999 -106.86)" fill="#fff"/>
            </g>
          </g>
        </g>
        <g id="Group_105" data-name="Group 105" transform="translate(-22.5 560.189)">
          <path id="Path_155" data-name="Path 155" d="M155.514,3.009h-4.428V.372a.374.374,0,0,0-.605-.29L146.868,3h-5.126A3.25,3.25,0,0,0,138.5,6.245v.648h12.512a3.548,3.548,0,0,1,3.773,3.242v13.13h.729a3.25,3.25,0,0,0,3.242-3.242V6.251A3.25,3.25,0,0,0,155.514,3.009Z" transform="translate(-87.257 0)" fill="#fff"/>
          <path id="Path_156" data-name="Path 156" d="M62.514,132.8H48.742a3.25,3.25,0,0,0-3.242,3.242V149.82a3.25,3.25,0,0,0,3.242,3.242h4.607v2.785a.374.374,0,0,0,.605.29l3.8-3.076h4.755a3.25,3.25,0,0,0,3.242-3.242V136.042A3.25,3.25,0,0,0,62.514,132.8Zm.241,14.525a2.52,2.52,0,0,1-2.514,2.514H51.015a2.52,2.52,0,0,1-2.514-2.514v-8.578a2.52,2.52,0,0,1,2.514-2.514h9.227a2.52,2.52,0,0,1,2.514,2.514Z" transform="translate(0 -124.597)" fill="#fff"/>
          <g id="Group_104" data-name="Group 104" transform="translate(52.38 13.248)">
            <path id="Path_157" data-name="Path 157" d="M188.157,345.253a1.537,1.537,0,0,1-1.068.352,1.593,1.593,0,0,1-1.093-.352,1.263,1.263,0,0,1-.4-1,1.3,1.3,0,0,1,.377-1,1.58,1.58,0,0,1,1.112-.352,1.493,1.493,0,0,1,1.081.358,1.3,1.3,0,0,1,.377,1A1.275,1.275,0,0,1,188.157,345.253Z" transform="translate(-183.828 -334.97)" fill="#fff"/>
            <path id="Path_158" data-name="Path 158" d="M163.527,218.551a4.1,4.1,0,0,1-1.272,1.18,4.887,4.887,0,0,0-.926.7.79.79,0,0,0-.185.525v.358h-2.168v-.605a2.21,2.21,0,0,1,.284-1.167,2.946,2.946,0,0,1,1-.926,3.776,3.776,0,0,0,.821-.648.983.983,0,0,0,.253-.661.532.532,0,0,0-.266-.469,1.257,1.257,0,0,0-.7-.173,5.525,5.525,0,0,0-2.489.753L156.9,215.5a7.306,7.306,0,0,1,3.668-1,3.941,3.941,0,0,1,2.47.692,2.247,2.247,0,0,1,.9,1.884A2.736,2.736,0,0,1,163.527,218.551Z" transform="translate(-156.9 -214.5)" fill="#fff"/>
          </g>
        </g>
        <g id="Group_106" data-name="Group 106" transform="translate(22 619)">
          <g id="background">
            <rect id="Rectangle_48" data-name="Rectangle 48" width="32" height="32" fill="none"/>
          </g>
          <g id="news_1_">
            <path id="Path_159" data-name="Path 159" d="M4,14H24V12H4ZM15,26h7V24H15Zm0-4h9V20H15Zm0-4h9V16H15ZM4,26h9V16H4ZM28,10V6H0V28s0,4,4,4H29s3-.062,3-4V10ZM4,30a1.959,1.959,0,0,1-2-2V8H26V28a2.894,2.894,0,0,0,.676,2Z" fill="#fff"/>
          </g>
        </g>
        <g id="Page-1" transform="translate(23 678)">
          <g id="Core">
            <g id="account-circle">
              <path id="Shape" d="M13.5,0A13.5,13.5,0,1,0,27,13.5,13.54,13.54,0,0,0,13.5,0Zm0,4.05A3.978,3.978,0,0,1,17.55,8.1a3.978,3.978,0,0,1-4.05,4.05A3.978,3.978,0,0,1,9.45,8.1,3.978,3.978,0,0,1,13.5,4.05Zm0,19.17A9.849,9.849,0,0,1,5.4,18.9c0-2.7,5.4-4.185,8.1-4.185S21.6,16.2,21.6,18.9a9.849,9.849,0,0,1-8.1,4.32Z" fill="#fff" fill-rule="evenodd"/>
            </g>
          </g>
        </g>
        <g id="bubble" transform="translate(23 731)">
          <path id="Path_160" data-name="Path 160" d="M16,7C10.037,7,5,10.206,5,14a.5.5,0,0,0,1,0c0-3.2,4.673-6,10-6a.5.5,0,0,0,0-1Z" fill="#fff" fill-rule="evenodd"/>
          <path id="Path_161" data-name="Path 161" d="M16,2C7.163,2,0,7.373,0,14c0,4.127,2.779,7.766,7.008,9.926,0,.027-.008.045-.008.074,0,1.793-1.339,3.723-1.928,4.736h0A.905.905,0,0,0,5.906,30c.094,0,.259-.025.255-.014,3.125-.512,6.069-3.383,6.753-4.215A21.18,21.18,0,0,0,16,26c8.835,0,16-5.373,16-12S24.836,2,16,2Zm0,22a19.422,19.422,0,0,1-2.8-.207,1.777,1.777,0,0,0-.29-.021,2,2,0,0,0-1.546.73,13.433,13.433,0,0,1-3.085,2.539A7.829,7.829,0,0,0,9,24.109c.006-.064.009-.129.009-.184a2,2,0,0,0-1.09-1.781C4.212,20.252,2,17.207,2,14,2,8.486,8.28,4,16,4S30,8.486,30,14,23.719,24,16,24Z" fill="#fff" fill-rule="evenodd"/>
        </g>
        <g id="Group_107" data-name="Group 107" transform="translate(20 786.5)">
          <path id="Path_143" data-name="Path 143" d="M5.868,32.594H18.906a1.719,1.719,0,0,0,0-3.438H5.868L8.09,26.934A1.719,1.719,0,1,0,5.66,24.5L.5,29.66a1.718,1.718,0,0,0,0,2.43L5.66,37.247a1.719,1.719,0,1,0,2.43-2.43Z" transform="translate(0 -17.125)" fill="#fff"/>
          <path id="Path_144" data-name="Path 144" d="M51.469,0H37.719A1.718,1.718,0,0,0,36,1.719V5.156a1.719,1.719,0,0,0,3.438,0V3.437H49.75V24.062H39.438V22.344a1.719,1.719,0,0,0-3.437,0v3.438A1.718,1.718,0,0,0,37.719,27.5h13.75a1.718,1.718,0,0,0,1.719-1.719V1.719A1.718,1.718,0,0,0,51.469,0Z" transform="translate(-25.687 0)" fill="#fff"/>
        </g>
      </g>
    </g>
    <g id="Group_133" data-name="Group 133" transform="translate(227 4)">
      <rect id="Rectangle_63" data-name="Rectangle 63" width="183" height="45" rx="18" transform="translate(102 571)" fill="#daffd8"/>
      <rect id="Rectangle_74" data-name="Rectangle 74" width="183" height="45" rx="18" transform="translate(302 571)" fill="#daffd8"/>
      <rect id="Rectangle_75" data-name="Rectangle 75" width="183" height="45" rx="18" transform="translate(702 571)" fill="#daffd8"/>
      <rect id="Rectangle_76" data-name="Rectangle 76" width="183" height="45" rx="18" transform="translate(502 571)" fill="#daffd8"/>
      <text id="List_of_Problems" data-name="List of Problems" transform="translate(127 601)" fill="#131313" font-size="20" font-family="TimesNewRomanPSMT, Times New Roman"><tspan x="0" y="0">List of Problems</tspan></text>
      <text id="Level" transform="translate(371 601)" fill="#131313" font-size="20" font-family="TimesNewRomanPSMT, Times New Roman"><tspan x="0" y="0">Level</tspan></text>
      <text id="Status-2" data-name="Status" transform="translate(569 601)" fill="#131313" font-size="20" font-family="TimesNewRomanPSMT, Times New Roman"><tspan x="0" y="0">Status</tspan></text>
      <text id="Topics" transform="translate(767 601)" fill="#131313" font-size="20" font-family="TimesNewRomanPSMT, Times New Roman"><tspan x="0" y="0">Topics</tspan></text>
      <path id="Path_181" data-name="Path 181" d="M112.275,160l1.05,1.078L104.663,170,96,161.078,97.045,160l7.618,7.839Z" transform="translate(524.5 431.3)"/>
      <path id="Path_184" data-name="Path 184" d="M112.275,160l1.05,1.078L104.663,170,96,161.078,97.045,160l7.618,7.839Z" transform="translate(726.5 431.3)"/>
      <path id="Path_182" data-name="Path 182" d="M112.275,160l1.05,1.078L104.663,170,96,161.078,97.045,160l7.618,7.839Z" transform="translate(324.5 431.3)"/>
      <path id="Path_183" data-name="Path 183" d="M112.275,160l1.05,1.078L104.663,170,96,161.078,97.045,160l7.618,7.839Z" transform="translate(164 431.3)"/>
    </g>
  </g>
</svg>
